<mxfile host="app.diagrams.net" modified="2023-10-03T20:17:17.830Z" agent="Mozilla/5.0 (Windows NT 10.0; Win64; x64) AppleWebKit/537.36 (KHTML, like Gecko) Chrome/117.0.0.0 Safari/537.36" etag="_hDL9qXfSu2AEhBcE1hc" version="22.0.1" type="device">
  <diagram name="Page-1" id="BdtXLh70MsclHzi9UL6R">
    <mxGraphModel dx="1034" dy="502" grid="1" gridSize="10" guides="1" tooltips="1" connect="1" arrows="1" fold="1" page="1" pageScale="1" pageWidth="850" pageHeight="1100" math="0" shadow="0">
      <root>
        <mxCell id="0" />
        <mxCell id="1" parent="0" />
        <mxCell id="SOK8esqjdoVx8pa6e1xp-1" value="Public subnet" style="points=[[0,0],[0.25,0],[0.5,0],[0.75,0],[1,0],[1,0.25],[1,0.5],[1,0.75],[1,1],[0.75,1],[0.5,1],[0.25,1],[0,1],[0,0.75],[0,0.5],[0,0.25]];outlineConnect=0;gradientColor=none;html=1;whiteSpace=wrap;fontSize=12;fontStyle=0;container=1;pointerEvents=0;collapsible=0;recursiveResize=0;shape=mxgraph.aws4.group;grIcon=mxgraph.aws4.group_security_group;grStroke=0;strokeColor=#248814;fillColor=#E9F3E6;verticalAlign=top;align=left;spacingLeft=30;fontColor=#248814;dashed=0;" vertex="1" parent="1">
          <mxGeometry x="201" y="433" width="150" height="140" as="geometry" />
        </mxCell>
        <mxCell id="SOK8esqjdoVx8pa6e1xp-3" value="" style="sketch=0;html=1;dashed=0;whitespace=wrap;fillColor=#2875E2;strokeColor=#ffffff;points=[[0.005,0.63,0],[0.1,0.2,0],[0.9,0.2,0],[0.5,0,0],[0.995,0.63,0],[0.72,0.99,0],[0.5,1,0],[0.28,0.99,0]];verticalLabelPosition=bottom;align=center;verticalAlign=top;shape=mxgraph.kubernetes.icon;prIcon=node" vertex="1" parent="SOK8esqjdoVx8pa6e1xp-1">
          <mxGeometry x="80" y="60" width="50" height="50" as="geometry" />
        </mxCell>
        <mxCell id="SOK8esqjdoVx8pa6e1xp-5" value="" style="sketch=0;points=[[0,0,0],[0.25,0,0],[0.5,0,0],[0.75,0,0],[1,0,0],[0,1,0],[0.25,1,0],[0.5,1,0],[0.75,1,0],[1,1,0],[0,0.25,0],[0,0.5,0],[0,0.75,0],[1,0.25,0],[1,0.5,0],[1,0.75,0]];outlineConnect=0;fontColor=#232F3E;fillColor=#ED7100;strokeColor=#ffffff;dashed=0;verticalLabelPosition=bottom;verticalAlign=top;align=center;html=1;fontSize=12;fontStyle=0;aspect=fixed;shape=mxgraph.aws4.resourceIcon;resIcon=mxgraph.aws4.auto_scaling2;" vertex="1" parent="1">
          <mxGeometry x="391" y="305" width="40" height="40" as="geometry" />
        </mxCell>
        <mxCell id="SOK8esqjdoVx8pa6e1xp-6" value="Amazon EKS" style="sketch=0;outlineConnect=0;fontColor=#232F3E;gradientColor=none;strokeColor=#ffffff;fillColor=#232F3E;dashed=0;verticalLabelPosition=middle;verticalAlign=bottom;align=center;html=1;whiteSpace=wrap;fontSize=10;fontStyle=1;spacing=3;shape=mxgraph.aws4.productIcon;prIcon=mxgraph.aws4.eks;" vertex="1" parent="1">
          <mxGeometry x="389" y="375" width="50" height="80" as="geometry" />
        </mxCell>
        <mxCell id="SOK8esqjdoVx8pa6e1xp-7" value="Public subnet" style="points=[[0,0],[0.25,0],[0.5,0],[0.75,0],[1,0],[1,0.25],[1,0.5],[1,0.75],[1,1],[0.75,1],[0.5,1],[0.25,1],[0,1],[0,0.75],[0,0.5],[0,0.25]];outlineConnect=0;gradientColor=none;html=1;whiteSpace=wrap;fontSize=12;fontStyle=0;container=1;pointerEvents=0;collapsible=0;recursiveResize=0;shape=mxgraph.aws4.group;grIcon=mxgraph.aws4.group_security_group;grStroke=0;strokeColor=#248814;fillColor=#E9F3E6;verticalAlign=top;align=left;spacingLeft=30;fontColor=#248814;dashed=0;" vertex="1" parent="1">
          <mxGeometry x="471" y="433" width="150" height="140" as="geometry" />
        </mxCell>
        <mxCell id="SOK8esqjdoVx8pa6e1xp-9" value="" style="sketch=0;html=1;dashed=0;whitespace=wrap;fillColor=#2875E2;strokeColor=#ffffff;points=[[0.005,0.63,0],[0.1,0.2,0],[0.9,0.2,0],[0.5,0,0],[0.995,0.63,0],[0.72,0.99,0],[0.5,1,0],[0.28,0.99,0]];verticalLabelPosition=bottom;align=center;verticalAlign=top;shape=mxgraph.kubernetes.icon;prIcon=node" vertex="1" parent="SOK8esqjdoVx8pa6e1xp-7">
          <mxGeometry x="20" y="60" width="50" height="50" as="geometry" />
        </mxCell>
        <mxCell id="SOK8esqjdoVx8pa6e1xp-10" value="" style="sketch=0;outlineConnect=0;fontColor=#232F3E;gradientColor=none;fillColor=#8C4FFF;strokeColor=none;dashed=0;verticalLabelPosition=bottom;verticalAlign=top;align=center;html=1;fontSize=12;fontStyle=0;aspect=fixed;pointerEvents=1;shape=mxgraph.aws4.internet_gateway;" vertex="1" parent="1">
          <mxGeometry x="391" y="242" width="40" height="40" as="geometry" />
        </mxCell>
        <mxCell id="SOK8esqjdoVx8pa6e1xp-13" value="" style="edgeStyle=elbowEdgeStyle;elbow=horizontal;endArrow=classic;html=1;curved=0;rounded=0;endSize=8;startSize=8;entryX=1.04;entryY=0.52;entryDx=0;entryDy=0;entryPerimeter=0;" edge="1" parent="1" source="SOK8esqjdoVx8pa6e1xp-6" target="SOK8esqjdoVx8pa6e1xp-3">
          <mxGeometry width="50" height="50" relative="1" as="geometry">
            <mxPoint x="411" y="543" as="sourcePoint" />
            <mxPoint x="461" y="493" as="targetPoint" />
          </mxGeometry>
        </mxCell>
        <mxCell id="SOK8esqjdoVx8pa6e1xp-17" value="" style="edgeStyle=elbowEdgeStyle;elbow=horizontal;endArrow=classic;html=1;curved=0;rounded=0;endSize=8;startSize=8;entryX=0.005;entryY=0.63;entryDx=0;entryDy=0;entryPerimeter=0;exitX=1.04;exitY=0.475;exitDx=0;exitDy=0;exitPerimeter=0;" edge="1" parent="1" source="SOK8esqjdoVx8pa6e1xp-6" target="SOK8esqjdoVx8pa6e1xp-9">
          <mxGeometry width="50" height="50" relative="1" as="geometry">
            <mxPoint x="745" y="413" as="sourcePoint" />
            <mxPoint x="691" y="675" as="targetPoint" />
          </mxGeometry>
        </mxCell>
        <mxCell id="SOK8esqjdoVx8pa6e1xp-18" value="" style="endArrow=classic;html=1;rounded=0;entryX=0.5;entryY=0;entryDx=0;entryDy=0;entryPerimeter=0;" edge="1" parent="1" source="SOK8esqjdoVx8pa6e1xp-10" target="SOK8esqjdoVx8pa6e1xp-5">
          <mxGeometry width="50" height="50" relative="1" as="geometry">
            <mxPoint x="411" y="442" as="sourcePoint" />
            <mxPoint x="461" y="392" as="targetPoint" />
          </mxGeometry>
        </mxCell>
        <mxCell id="SOK8esqjdoVx8pa6e1xp-19" value="" style="endArrow=classic;html=1;rounded=0;exitX=0.5;exitY=1;exitDx=0;exitDy=0;exitPerimeter=0;" edge="1" parent="1" source="SOK8esqjdoVx8pa6e1xp-5">
          <mxGeometry width="50" height="50" relative="1" as="geometry">
            <mxPoint x="501" y="355" as="sourcePoint" />
            <mxPoint x="411" y="372" as="targetPoint" />
          </mxGeometry>
        </mxCell>
        <mxCell id="SOK8esqjdoVx8pa6e1xp-20" value="VPC" style="points=[[0,0],[0.25,0],[0.5,0],[0.75,0],[1,0],[1,0.25],[1,0.5],[1,0.75],[1,1],[0.75,1],[0.5,1],[0.25,1],[0,1],[0,0.75],[0,0.5],[0,0.25]];outlineConnect=0;gradientColor=none;html=1;whiteSpace=wrap;fontSize=12;fontStyle=0;container=1;pointerEvents=0;collapsible=0;recursiveResize=0;shape=mxgraph.aws4.group;grIcon=mxgraph.aws4.group_vpc;strokeColor=#248814;fillColor=none;verticalAlign=top;align=left;spacingLeft=30;fontColor=#AAB7B8;dashed=0;" vertex="1" parent="1">
          <mxGeometry x="171" y="215" width="490" height="387" as="geometry" />
        </mxCell>
        <mxCell id="SOK8esqjdoVx8pa6e1xp-21" value="Region" style="points=[[0,0],[0.25,0],[0.5,0],[0.75,0],[1,0],[1,0.25],[1,0.5],[1,0.75],[1,1],[0.75,1],[0.5,1],[0.25,1],[0,1],[0,0.75],[0,0.5],[0,0.25]];outlineConnect=0;gradientColor=none;html=1;whiteSpace=wrap;fontSize=12;fontStyle=0;container=1;pointerEvents=0;collapsible=0;recursiveResize=0;shape=mxgraph.aws4.group;grIcon=mxgraph.aws4.group_region;strokeColor=#147EBA;fillColor=none;verticalAlign=top;align=left;spacingLeft=30;fontColor=#147EBA;dashed=1;" vertex="1" parent="1">
          <mxGeometry x="130" y="190" width="540" height="440" as="geometry" />
        </mxCell>
        <mxCell id="SOK8esqjdoVx8pa6e1xp-22" value="&lt;b&gt;IGW&lt;/b&gt;" style="text;html=1;strokeColor=none;fillColor=none;align=center;verticalAlign=middle;whiteSpace=wrap;rounded=0;" vertex="1" parent="SOK8esqjdoVx8pa6e1xp-21">
          <mxGeometry x="290" y="60" width="60" height="30" as="geometry" />
        </mxCell>
        <mxCell id="SOK8esqjdoVx8pa6e1xp-25" value="&lt;b&gt;Auto Scale Group&lt;/b&gt;" style="text;html=1;strokeColor=none;fillColor=none;align=center;verticalAlign=middle;whiteSpace=wrap;rounded=0;" vertex="1" parent="SOK8esqjdoVx8pa6e1xp-21">
          <mxGeometry x="303" y="128" width="110" height="30" as="geometry" />
        </mxCell>
        <mxCell id="SOK8esqjdoVx8pa6e1xp-26" value="&lt;b&gt;k8s worker &lt;br&gt;node&lt;/b&gt;" style="text;html=1;strokeColor=none;fillColor=none;align=center;verticalAlign=middle;whiteSpace=wrap;rounded=0;" vertex="1" parent="SOK8esqjdoVx8pa6e1xp-21">
          <mxGeometry x="140" y="350" width="70" height="30" as="geometry" />
        </mxCell>
        <mxCell id="SOK8esqjdoVx8pa6e1xp-27" value="&lt;b&gt;k8s worker &lt;br&gt;node&lt;/b&gt;" style="text;html=1;strokeColor=none;fillColor=none;align=center;verticalAlign=middle;whiteSpace=wrap;rounded=0;" vertex="1" parent="SOK8esqjdoVx8pa6e1xp-21">
          <mxGeometry x="358" y="351" width="70" height="30" as="geometry" />
        </mxCell>
        <mxCell id="SOK8esqjdoVx8pa6e1xp-28" value="" style="shape=image;html=1;verticalAlign=top;verticalLabelPosition=bottom;labelBackgroundColor=#ffffff;imageAspect=0;aspect=fixed;image=https://cdn1.iconfinder.com/data/icons/nuvola2/128x128/apps/laptop_pcmcia.png" vertex="1" parent="1">
          <mxGeometry x="370.5" y="100" width="81" height="81" as="geometry" />
        </mxCell>
        <mxCell id="SOK8esqjdoVx8pa6e1xp-29" value="User&#39;s&lt;br&gt;Laptop" style="text;html=1;strokeColor=none;fillColor=none;align=center;verticalAlign=middle;whiteSpace=wrap;rounded=0;fontStyle=1" vertex="1" parent="1">
          <mxGeometry x="450" y="125.5" width="81" height="30" as="geometry" />
        </mxCell>
        <mxCell id="SOK8esqjdoVx8pa6e1xp-30" value="" style="endArrow=classic;startArrow=classic;html=1;rounded=0;" edge="1" parent="1" source="SOK8esqjdoVx8pa6e1xp-10">
          <mxGeometry width="50" height="50" relative="1" as="geometry">
            <mxPoint x="570" y="350" as="sourcePoint" />
            <mxPoint x="410" y="170" as="targetPoint" />
          </mxGeometry>
        </mxCell>
      </root>
    </mxGraphModel>
  </diagram>
</mxfile>
